<svg xmlns="http://www.w3.org/2000/svg" data-name="Layer 1" viewBox="0 0 128 160" x="0px" y="0px"><title>miscellaneous 165_solid</title><path d="M125.2666,112.53418A8.95994,8.95994,0,0,0,119.00488,110a9.12554,9.12554,0,0,0-1.65631.15631l-11.373-11.65784,2.28418-2.268a5.91459,5.91459,0,0,0,.07129-8.29687l-.163-.16748a5.80483,5.80483,0,0,0-8.26477-.07623l-.41107.40778L21.2002,10.62109a2.01749,2.01749,0,0,0-.42383-.32031L2.9834.2583A2,2,0,0,0,.30469,3.061L11.13477,20.36566a2.03244,2.03244,0,0,0,.26849.34039l76.98932,78.415-.6524.64746a5.91492,5.91492,0,0,0-.07129,8.29785l.16309.167a5.80469,5.80469,0,0,0,8.26471.07617l2.16791-2.1524,11.78027,12.06354a8.99773,8.99773,0,1,0,15.22174-5.68652ZM93.2793,105.4707a1.84341,1.84341,0,0,1-2.584-.03082l-.16315-.167a1.89989,1.89989,0,0,1,.02539-2.665L102.7207,90.5293a1.82488,1.82488,0,0,1,2.584.02979l.16309.16748a1.90029,1.90029,0,0,1-.02539,2.66455Zm29.31738,17.00775a4.99892,4.99892,0,1,1-.1123-7.07129A4.96159,4.96159,0,0,1,122.59668,122.47845Z"/><path d="M80.25354,63.43182l9.91394,9.81073.00012-.00012,2.39489,2.36987,6.80177-6.71442a25.48929,25.48929,0,0,0,4.81934-29.83881l-1.67993,1.71057Z"/><path d="M64,47.34747,86.08588,25.4917A26.58813,26.58813,0,0,0,80.98138,25a26.00833,26.00833,0,0,0-16.98431,6.23138,26.01432,26.01432,0,0,0-16.98541-6.2309,26.59566,26.59566,0,0,0-5.0976.49072l.72961.72223Z"/><path d="M54.09821,90.07153l.00043.00037L52.12207,92.085l10.47174,10.33832a2.00037,2.00037,0,0,0,2.81049,0L75.87781,92.084,64.00006,79.98639Z"/><path d="M35.43744,75.61273,47.74652,63.43188,23.81641,39.05859A25.49,25.49,0,0,0,28.63177,68.894Z"/><path d="M77.41022,60.6181l39.18646-39.912a2.02931,2.02931,0,0,0,.26849-.34039L127.69525,3.061A1.99992,1.99992,0,0,0,125.0166.2583l-17.793,10.04248a2.01556,2.01556,0,0,0-.42377.32031l-39.956,39.54Z"/><path d="M39.60736,99.12109l21.5899-21.98932.00006-.00006L50.54883,66.286l-.00006.00006-22.041,21.81158-.41211-.40918a5.80387,5.80387,0,0,0-8.25592.0708l-.17871.18109a5.91283,5.91283,0,0,0,.07819,8.28864l2.28516,2.26947-11.373,11.65784A9.125,9.125,0,0,0,8.99506,110a9.00292,9.00292,0,1,0,8.96,8.2207l11.78033-12.06354,2.16888,2.1543a5.85842,5.85842,0,0,0,8.25586-.07129l.17871-.18158A5.91181,5.91181,0,0,0,40.26068,99.77ZM12.47357,122.59076a4.999,4.999,0,1,1,.11334-7.07025A4.97486,4.97486,0,0,1,12.47357,122.59076Zm25.002-17.3252-.17871.1817a1.8491,1.8491,0,0,1-2.5752.0249L22.55658,93.38959a1.89841,1.89841,0,0,1-.03217-2.65619l.17865-.18121a1.825,1.825,0,0,1,2.5752-.02441l12.1651,12.0816A1.8975,1.8975,0,0,1,37.47559,105.26556Z"/><text x="0" y="143" fill="#000000" font-size="5px" font-weight="bold" font-family="'Helvetica Neue', Helvetica, Arial-Unicode, Arial, Sans-serif">Created by WEBTECHOPS LLP</text><text x="0" y="148" fill="#000000" font-size="5px" font-weight="bold" font-family="'Helvetica Neue', Helvetica, Arial-Unicode, Arial, Sans-serif">from the Noun Project</text></svg>